<?xml version="1.0" standalone="no"?>
<!DOCTYPE svg PUBLIC "-//W3C//DTD SVG 20010904//EN"
 "http://www.w3.org/TR/2001/REC-SVG-20010904/DTD/svg10.dtd">
<svg version="1.0" xmlns="http://www.w3.org/2000/svg"
 width="350.000000pt" height="350.000000pt" viewBox="0 0 350.000000 350.000000"
 preserveAspectRatio="xMidYMid meet">
<metadata>
Created by potrace 1.11, written by Peter Selinger 2001-2013
</metadata>
<g transform="translate(0.000000,350.000000) scale(0.100000,-0.100000)"
fill="#000000" stroke="none">
<path d="M552 2828 c-13 -17 -57 -124 -67 -163 -28 -114 -21 -301 15 -397 24
-66 86 -158 141 -211 l39 -37 -54 -66 c-163 -198 -202 -469 -99 -684 34 -72
150 -186 225 -223 245 -120 537 -39 673 188 38 64 73 163 77 220 3 44 17 45
105 5 36 -16 73 -30 82 -30 9 0 51 14 95 31 43 17 84 28 90 26 14 -6 63 -87
231 -379 l67 -118 304 0 c281 0 305 1 311 18 4 9 28 52 55 95 26 43 48 80 48
83 0 2 26 48 58 101 123 207 126 214 115 242 -10 23 -89 197 -156 341 -36 78
-77 172 -77 176 0 2 34 26 75 54 41 28 79 58 84 68 6 11 28 91 50 180 l41 161
-31 118 c-17 65 -35 136 -41 158 -5 22 -13 44 -17 48 -5 5 -53 -39 -107 -97
-54 -58 -102 -106 -106 -106 -3 0 -78 -34 -165 -76 -250 -120 -221 -113 -537
-135 -426 -31 -476 -32 -684 -20 -209 12 -268 21 -352 53 -193 74 -338 185
-436 332 -20 31 -38 56 -39 56 -1 0 -7 -6 -13 -12z m547 -937 c84 -26 155 -74
203 -137 210 -279 6 -662 -343 -642 -143 8 -270 95 -333 228 -29 60 -31 73
-31 170 0 99 2 110 33 172 87 177 288 266 471 209z m1718 -183 l114 -198 -113
-200 -113 -199 -235 -1 -235 0 -110 192 c-61 106 -111 196 -113 200 -2 4 47
98 110 208 l113 200 234 -3 233 -2 115 -197z"/>
<path d="M892 1745 c-115 -50 -180 -176 -152 -295 34 -141 177 -225 316 -185
47 13 69 27 109 68 31 32 55 68 63 93 15 50 16 123 2 160 l-10 26 -25 -26
c-51 -55 -120 -58 -169 -7 -38 39 -44 90 -17 136 11 20 21 38 21 41 0 10 -108
2 -138 -11z"/>
<path d="M2254 1634 l-72 -127 73 -126 74 -126 145 -2 145 -2 71 123 c38 68
70 129 70 135 0 16 -60 121 -70 121 -4 0 -18 -20 -31 -45 l-24 -46 -73 3 -74
3 -31 56 -31 57 27 51 28 51 -78 0 -78 0 -71 -126z"/>
<path d="M1377 993 c-11 -10 -8 -73 4 -118 17 -63 75 -172 125 -236 40 -50
169 -169 184 -169 3 0 37 53 76 118 40 64 108 177 153 250 45 73 81 139 81
147 0 13 -42 15 -308 15 -170 0 -312 -3 -315 -7z"/>
</g>
</svg>
