<?xml version="1.0" standalone="no"?>
<!DOCTYPE svg PUBLIC "-//W3C//DTD SVG 20010904//EN"
 "http://www.w3.org/TR/2001/REC-SVG-20010904/DTD/svg10.dtd">
<svg version="1.0" xmlns="http://www.w3.org/2000/svg"
 width="16.000000pt" height="16.000000pt" viewBox="0 0 16.000000 16.000000"
 preserveAspectRatio="xMidYMid meet">
<metadata>
Created by potrace 1.11, written by Peter Selinger 2001-2013
</metadata>
<g transform="translate(0.000000,16.000000) scale(0.000525,-0.000525)"
fill="#000000" stroke="none">
<path d="M0 21297 c0 -34 6 -57 20 -74 11 -14 20 -23 20 -19 0 4 6 1 13 -6 8
-7 42 -38 77 -68 35 -30 72 -63 82 -72 10 -10 21 -19 25 -20 6 -3 64 -54 135
-120 16 -16 33 -28 36 -28 4 0 18 -13 32 -30 14 -16 28 -30 33 -30 8 0 60 -44
109 -92 15 -16 31 -28 35 -28 5 0 22 -15 39 -32 28 -31 111 -103 156 -138 11
-8 34 -28 52 -45 32 -29 118 -105 200 -175 22 -19 50 -44 62 -55 11 -11 36
-31 54 -45 19 -14 52 -42 74 -63 23 -22 59 -53 80 -70 21 -18 50 -44 64 -60
14 -15 27 -25 30 -23 2 3 19 -11 38 -29 19 -19 34 -33 34 -31 0 3 15 -10 34
-27 40 -39 107 -96 134 -117 10 -8 50 -43 88 -77 82 -74 104 -93 164 -142 25
-20 46 -39 48 -43 2 -4 51 -47 110 -96 59 -49 137 -116 173 -148 36 -32 97
-86 134 -119 38 -33 74 -66 82 -73 7 -7 13 -11 13 -8 0 3 11 -5 23 -17 35 -33
73 -66 167 -146 47 -40 97 -84 112 -97 15 -13 32 -24 38 -24 5 0 10 -6 10 -14
0 -8 4 -16 10 -18 14 -5 215 -176 275 -234 l53 -51 1 -4849 c0 -2667 3 -4860
5 -4873 3 -13 8 -26 12 -30 3 -3 2194 -6 4868 -7 2675 -1 4874 -4 4887 -8 13
-3 39 -25 58 -49 18 -23 84 -96 146 -162 62 -66 123 -132 136 -146 73 -80 219
-238 249 -269 19 -20 80 -85 135 -145 91 -100 182 -198 260 -280 17 -17 54
-58 84 -91 99 -109 329 -357 424 -457 32 -33 63 -69 68 -79 6 -10 14 -16 20
-13 5 4 9 0 9 -8 0 -7 23 -34 50 -60 28 -26 50 -49 50 -52 0 -2 15 -20 33 -39
109 -115 130 -136 138 -136 5 0 9 -4 9 -10 0 -5 10 -20 23 -33 12 -13 54 -59
92 -102 65 -72 95 -105 191 -207 20 -21 42 -38 49 -38 14 0 63 49 196 197 41
45 130 142 198 215 69 73 172 184 230 247 58 63 115 124 126 136 11 11 63 67
115 125 52 57 109 118 125 135 17 18 75 81 130 141 55 60 132 143 171 184 40
41 84 89 99 105 15 17 70 77 123 134 54 57 113 121 132 143 19 22 70 77 113
121 42 44 77 82 77 84 0 3 26 32 59 66 32 34 89 96 127 137 38 40 99 105 135
143 l65 70 4872 0 c3980 -1 4875 2 4889 12 17 13 18 229 19 4872 0 2672 4
4868 8 4880 4 12 53 61 109 110 56 48 104 90 107 93 3 3 34 29 70 59 36 30 72
62 81 70 8 9 38 35 65 57 27 23 67 57 89 75 43 36 83 72 119 104 12 11 47 40
76 65 30 25 61 52 70 60 26 25 520 453 564 488 22 18 46 39 51 45 6 7 19 19
31 27 22 16 118 99 185 162 21 20 39 33 39 30 0 -4 12 5 28 20 47 48 118 112
152 138 48 36 108 89 157 138 23 23 45 42 48 42 5 0 118 96 305 259 30 27 70
61 89 77 18 16 48 44 67 62 19 17 37 32 39 32 6 0 58 46 109 95 17 17 47 42
66 56 19 15 53 43 75 63 22 21 62 56 89 79 28 23 62 53 77 67 14 14 41 36 59
50 18 14 60 51 92 83 33 31 63 57 66 57 12 0 83 72 77 78 -3 3 -6850 6 -15215
6 l-15210 1 0 -48z m10727 -4891 c4 -4 9 -378 11 -830 2 -683 0 -825 -12 -841
-13 -18 -42 -19 -787 -17 -914 1 -851 0 -868 11 -10 7 -13 40 -13 142 0 74 1
139 2 144 2 6 1 15 0 20 -6 27 -5 652 2 666 4 9 5 19 2 22 -9 9 -6 669 3 677
4 5 24 10 43 12 79 7 1609 2 1617 -6z m10539 -10 c20 -28 21 -1633 0 -1661
-13 -18 -38 -19 -836 -19 -803 -1 -822 -1 -836 18 -12 17 -14 143 -12 840 l3
820 21 11 c14 7 289 10 833 10 782 0 813 -1 827 -19z"/>
</g>
</svg>
